# xmcd
#
# Track frame offsets:
#	150
#	11195
#	20712
#	30787
#	40740
#	52510
#	63050
#	74960
#	85860
#	97885
#	110230
#	121672
#	130992
#	140102
#	151825
#	163287
#	173672
#	188450
#	198595
#	206060
#	216255
#
# Disc length: 3055 seconds
#
# Revision: 2
# Processed by: cddbd v1.5.2PL0 Copyright (c) Steve Scherf et al.
# Submitted via: dBpowerAMP V4.0
#
DISCID=240bed15
DTITLE=Various Artist - 漣健児のワンダーランド~ヴァケーション 
DYEAR=1998
DGENRE=JPop
TTITLE0=ヴァケーション(弘田三枝子) 
TTITLE1=カマ·カマ·ベイビー(坂本九&パラダイス·キング) 
TTITLE2=恋はやせがまん(ダニー飯田とパラダイス·キング) 
TTITLE3=ネイビー·ブルー(悲しき水兵さん)(九重佑三子&パラダイス·キング) 
TTITLE4=浮気なスー(悲しき恋の物語)(スリー·ファンキーズ) 
TTITLE5=シャンパン·ツイスト(ベニ·シスターズ) 
TTITLE6=想い出の冬休み(弘田三枝子) 
TTITLE7=可愛いベイビー(森山加代子) 
TTITLE8=すてきな16才(弘田三枝子) 
TTITLE9=悲しき片想い(弘田三枝子) 
TTITLE10=私を愛して(奥村チヨ) 
TTITLE11=悲恋のワルツ(ナット·キング·コール) 
TTITLE12=悲しきパラダイス(尾藤イサオ) 
TTITLE13=ノー·モア(ラ·パロマ)(ジェリー藤尾) 
TTITLE14=若さを歌おう(富松千代志) 
TTITLE15=今日の涙は明日の虹さ(山下敬二郎) 
TTITLE16=禁じられた恋のボレロ(水原弘) 
TTITLE17=ジプシー·ウーマン(瀬高明) 
TTITLE18=ヒッピ·ヒッピ·シェイク(赤木良輔&パラダイス·キング)
TTITLE19=抱きしめたい(スリー·ファンキーズ) 
TTITLE20=機嫌を直してもう一度(望月浩) 
EXTD=
EXTT0=
EXTT1=
EXTT2=
EXTT3=
EXTT4=
EXTT5=
EXTT6=
EXTT7=
EXTT8=
EXTT9=
EXTT10=
EXTT11=
EXTT12=
EXTT13=
EXTT14=
EXTT15=
EXTT16=
EXTT17=
EXTT18=
EXTT19=
EXTT20=
PLAYORDER=
